<svg xmlns="http://www.w3.org/2000/svg" width="256" height="256" viewBox="0 0 100 100"><rect width="100" height="100" rx="50" fill="#100f0f"></rect><path fill="#dddddc" d="M44.99 70.51L44.99 70.51Q56.16 70.51 78.63 60.35L78.63 60.35Q80.02 60.35 80.91 61.30Q81.80 62.26 81.80 63.53L81.80 63.53Q76.72 72.16 62.38 76.98Q48.03 81.81 35.59 78.63L35.59 78.63Q21.50 74.95 18.45 62.76L18.45 62.76Q18.20 60.35 18.20 56.29Q18.20 52.23 20.29 45.56Q22.39 38.90 27.47 32.93Q32.54 26.96 39.40 23.54Q46.25 20.11 54.00 20.11L54.00 20.11Q61.36 20.11 70.50 25.19L70.50 25.19Q74.82 27.60 77.36 30.64Q79.90 33.69 79.90 36.87L79.90 36.87Q79.90 37.75 79.77 38.64L79.77 38.64Q79.52 46.39 72.28 48.42L72.28 48.42Q69.11 49.31 64.92 49.31L64.92 49.31L46.64 48.55Q37.50 48.55 32.67 52.48L32.67 52.48Q29.88 54.64 28.74 58.96L28.74 58.96Q31.91 70.51 44.99 70.51ZM67.65 31.28Q64.79 29.25 61.74 28.36Q58.70 27.47 56.67 27.47Q54.63 27.47 50.06 28.80Q45.49 30.14 41.94 31.79L41.94 31.79Q33.18 35.85 33.18 40.29L33.18 40.29Q43.33 41.18 48.41 41.18L48.41 41.18Q62.50 41.18 67.46 38.77L67.46 38.77Q70.50 37.50 70.50 35.60L70.50 35.60Q70.50 33.31 67.65 31.28Z"></path></svg>